<?xml version="1.0" encoding="UTF-8"?>
<svg width="130px" height="113px" viewBox="0 0 130 113" version="1.1" xmlns="http://www.w3.org/2000/svg" xmlns:xlink="http://www.w3.org/1999/xlink">
    <!-- Generator: Sketch 51.3 (57544) - http://www.bohemiancoding.com/sketch -->
    <title>Group 3</title>
    <desc>Created with Sketch.</desc>
    <defs></defs>
    <g id="Page-1" stroke="none" stroke-width="1" fill="none" fill-rule="evenodd">
        <g id="Logo" transform="translate(-5197.000000, -235.000000)" fill="#000000" fill-rule="nonzero">
            <g id="Group" transform="translate(5197.000000, 235.000000)">
                <g id="Group-3">
                    <path d="M49.8,112.5 L27.7,112.5 C24.9,112.5 23.1,109.4 24.5,107 L30.4,96.7 L31.7,94.5 C32.4,93.4 33.6,92.7 34.9,92.7 L42.6,92.7 C43.9,92.7 45.1,93.4 45.8,94.5 L53,107 C54.4,109.5 52.7,112.5 49.8,112.5 Z" id="Shape"></path>
                    <path d="M119.1,110.7 L128.8,94 C129.5,92.9 129.5,91.5 128.8,90.3 L111.7,60.6 C110.3,58.1 106.7,58.1 105.3,60.6 L98.1,73.1 C97.4,74.2 97.4,75.6 98.1,76.8 L104.1,87.2 C105.5,89.7 103.7,92.7 100.9,92.7 L79.7,92.7 C78.4,92.7 77.2,92 76.5,90.9 L68.6,77.1 C67.9,76 66.7,75.3 65.4,75.3 L50.8,75.3 C48,75.3 46.2,78.4 47.6,80.8 L64.7,110.7 C65.4,111.8 66.6,112.5 67.9,112.5 L115.9,112.5 C117.3,112.5 118.5,111.8 119.1,110.7 Z" id="Shape"></path>
                    <path d="M74.9,0.5 L55.7,0.5 C54.4,0.5 53.2,1.2 52.5,2.3 L34.7,33.1 C33.3,35.6 35.1,38.6 37.9,38.6 L52.6,38.6 C53.9,38.6 55.1,37.9 55.8,36.7 L61.7,26.3 C63.1,23.8 66.7,23.8 68.1,26.3 L78.6,44.4 C79.3,45.5 79.3,46.9 78.6,48.1 L71.1,61 C70.4,62.1 70.4,63.5 71.1,64.7 L78.4,77.4 C79.8,79.8 83.3,79.9 84.8,77.4 L102.1,47.6 C102.8,46.5 102.8,45.1 102.1,43.9 L78,2.2 C77.4,1.2 76.2,0.5 74.9,0.5 Z" id="Shape"></path>
                    <path d="M66.5,52.5 L59.2,65.1 C58.5,66.2 57.3,66.9 56,66.9 L40.8,66.9 C39.5,66.9 38.3,67.6 37.6,68.7 L23.5,92.6 L15.4,107 C14,109.5 10.4,109.5 9,107 L1.5,94 C0.8,92.9 0.8,91.5 1.5,90.3 L25.6,48.8 C26.3,47.7 27.5,47 28.8,47 L63.3,47 C66.2,47 67.9,50.1 66.5,52.5 Z" id="Shape"></path>
                </g>
            </g>
        </g>
    </g>
</svg>